<svg width="24" height="24" viewBox="0 0 24 24" fill="none" xmlns="http://www.w3.org/2000/svg">
<path d="M12.0001 7.89L10.9301 9.75C10.6901 10.16 10.8901 10.5 11.3601 10.5H12.6301C13.1101 10.5 13.3001 10.84 13.0601 11.25L12.0001 13.11" stroke="#292D32" stroke-width="1.5" stroke-linecap="round" stroke-linejoin="round"/>
<path d="M8.29986 18.04V16.88C5.99986 15.49 4.10986 12.78 4.10986 9.9C4.10986 4.95 8.65986 1.07 13.7999 2.19C16.0599 2.69 18.0399 4.19 19.0699 6.26C21.1599 10.46 18.9599 14.92 15.7299 16.87V18.03C15.7299 18.32 15.8399 18.99 14.7699 18.99H9.25986C8.15986 19 8.29986 18.57 8.29986 18.04Z" stroke="#292D32" stroke-width="1.5" stroke-linecap="round" stroke-linejoin="round"/>
<path d="M8.5 22C10.79 21.35 13.21 21.35 15.5 22" stroke="#292D32" stroke-width="1.5" stroke-linecap="round" stroke-linejoin="round"/>
</svg>
