<svg xmlns="http://www.w3.org/2000/svg" data-name="Layer 1" viewBox="0 0 100 125" x="0px" y="0px"><title>Artboard 39</title><path d="M2.16,95.34c0,.34.68.59,1.46.55s1.25-.23,1.29-.46a10.06,10.06,0,0,1,2.72-5.48,9.13,9.13,0,0,1,3-2.05l4.57-1.73C21.39,83.8,28.38,81,35.42,78.06a15.38,15.38,0,0,0,4.24,4.26,18.66,18.66,0,0,0,20.79,0,15.43,15.43,0,0,0,4.24-4.25c7,2.93,14,5.73,20.17,8.07l4.56,1.73a9.16,9.16,0,0,1,3,2.06,10.09,10.09,0,0,1,2.72,5.5c0,.25.7.45,1.45.45s1.2-.24,1.22-.54a11.78,11.78,0,0,0-2.45-7.9A12.51,12.51,0,0,0,91.32,84l-.64-.33-.55-.26L89,82.88l-2.32-1.07c-5.82-2.68-12.48-5.62-19.31-8.53q0-2.1,0-4.21V68.4l.38-.53A25.16,25.16,0,0,0,69.45,65a31.55,31.55,0,0,0,3.24-10.86,15.34,15.34,0,0,0,3.6-4.71,14.94,14.94,0,0,0,1.5-6.16,8.7,8.7,0,0,0-.42-3.15,6.82,6.82,0,0,0-1.65-2.58,6.73,6.73,0,0,0-1.34-1l0-.1c.5-2.82,1-5.83,1.66-9.63l1.14-.76a11,11,0,0,0,2.35-1.93,8.33,8.33,0,0,0-2-12.5A54.17,54.17,0,0,0,28,8.79c-1.71.75-3.42,1.65-5,2.51-.16.08-.47.28-.73.44a5.23,5.23,0,0,0-.76.56,8.36,8.36,0,0,0-1.32,1.36,8.18,8.18,0,0,0-1.53,3.4A8.33,8.33,0,0,0,20.29,24a5.89,5.89,0,0,0,.6.66,4.91,4.91,0,0,0,.66.59c.22.17.5.39.66.5l.51.34,1.2.8,1.64,9.61,0,.1v0a6.74,6.74,0,0,0-1.13.85A6.92,6.92,0,0,0,22.72,40a8.49,8.49,0,0,0-.47,3.22,15,15,0,0,0,1.54,6.3,15.33,15.33,0,0,0,3.77,4.82,31.53,31.53,0,0,0,3.25,10.76,26,26,0,0,0,1.69,2.8l.16.23c0,.08,0,.18,0,.26v.74q0,2.07,0,4.14c-6.8,2.89-13.46,5.82-19.28,8.5l-2.32,1.07-1.12.53-.55.26L8.74,84a12.54,12.54,0,0,0-4.1,3.46A11.83,11.83,0,0,0,2.16,95.34Zm65.1-26.78v0ZM25.52,22l-.5-.36c-.17-.12-.2-.18-.32-.26a1.26,1.26,0,0,1-.26-.25,1.63,1.63,0,0,1-.23-.27,3.29,3.29,0,0,1-.55-2.73,3.05,3.05,0,0,1,.62-1.28,3.18,3.18,0,0,1,.51-.49,1.26,1.26,0,0,1,.3-.21,4.57,4.57,0,0,1,.4-.24c1.55-.82,3-1.56,4.6-2.23a50.76,50.76,0,0,1,40.36.2c1.51.67,3.06,1.43,4.41,2.19a3.18,3.18,0,0,1,1.58,2.24A3.39,3.39,0,0,1,75.8,21a6.32,6.32,0,0,1-1.33,1.12l-1.91,1.37-.07.05a2.27,2.27,0,0,0-.92,1.54c-.43,3.23-.78,5.89-1.08,8.32a64.89,64.89,0,0,0-10.23-1.92,61,61,0,0,0-9.34-.27c-.53,0-.94.68-.89,1.43s.41,1.21.86,1.24A87.09,87.09,0,0,1,59.76,35a73.43,73.43,0,0,1,8.68,2.11l-1.12.78-1.13.82c-.39.28-.73.5-1.11.76a25.94,25.94,0,0,1-2.48,1.4,29.67,29.67,0,0,1-12.58,3,29.66,29.66,0,0,1-12.57-3A25.9,25.9,0,0,1,35,39.45c-.38-.26-.72-.48-1.11-.76l-1.13-.82-1-.74a78.62,78.62,0,0,1,17.44-3.22c.52,0,.92-.71.88-1.48s-.43-1.24-.92-1.27a64.18,64.18,0,0,0-19.51,2.17l-1.07-8.27a2.31,2.31,0,0,0-.94-1.58l-.07-.05Zm6.85,30.8,0-.18a2.26,2.26,0,0,0-1-1.56A11.42,11.42,0,0,1,26.27,43a5.13,5.13,0,0,1,0-1.79,3.62,3.62,0,0,1,.65-1.38,3.88,3.88,0,0,1,1.28-1.07c.57.66,1.22,1.36,1.93,2.12l1,1c.34.34.76.74,1.17,1.11A23.33,23.33,0,0,0,35.06,45,28,28,0,0,0,65,45a23.29,23.29,0,0,0,2.79-2.08c.4-.37.83-.76,1.16-1.11l1-1q1.06-1.12,1.91-2.1a3.89,3.89,0,0,1,1.37,1.16,3.46,3.46,0,0,1,.6,1.36,5.41,5.41,0,0,1,0,1.77,11.41,11.41,0,0,1-4.86,7.92,2.28,2.28,0,0,0-1,1.56l0,.17a29.39,29.39,0,0,1-3.18,9.84,21,21,0,0,1-1.4,2.24l-.39.53-.2.28c-.08.12-.15.24-.22.37a4.75,4.75,0,0,0-.35.8,4.64,4.64,0,0,0-.2.88,4.56,4.56,0,0,0,0,.46v1c0,2,0,3.94,0,5.92v.14a2.72,2.72,0,0,0,.09.68,24.59,24.59,0,0,1-4,2.39,18.45,18.45,0,0,1-16,0,24.8,24.8,0,0,1-4-2.41,2.72,2.72,0,0,0,.09-.69c0-2,0-4,0-6V68a5.28,5.28,0,0,0,0-.74,4.71,4.71,0,0,0-.56-1.65c-.07-.12-.14-.24-.22-.36L37.14,65,37,64.78a22,22,0,0,1-1.39-2.21A29.37,29.37,0,0,1,32.36,52.81Z"/><path d="M46.8,64.39a7.55,7.55,0,0,0,2.73-1.11c.25-.17.38-.25.37-.23h.29s0,0,.06,0l.29.19a7.57,7.57,0,0,0,2.73,1.13,5.49,5.49,0,0,0,4.22-.69,4.79,4.79,0,0,0-.16-1.46A6.57,6.57,0,0,0,57,61a21.42,21.42,0,0,1-2.24-1.18A7,7,0,0,1,53.71,59l-.16-.15-.4-.31a5.55,5.55,0,0,0-1-.53,5.42,5.42,0,0,0-4.32,0,5.41,5.41,0,0,0-1,.54,4.78,4.78,0,0,0-.54.44,7,7,0,0,1-1.06.84A21.18,21.18,0,0,1,43.05,61a7.58,7.58,0,0,0-.33,1.4,3.86,3.86,0,0,0-.12,1.23A5.46,5.46,0,0,0,46.8,64.39Z"/><path d="M41.78,21c0,.09.07.2.1.26l.08.15.32.59a13.28,13.28,0,0,0,1.23,1.88,3.89,3.89,0,0,0,1.41-.3,3.21,3.21,0,0,0,1.14-.5A13.29,13.29,0,0,0,46,20.83c-.19-1.17,0-1.08.18-1.23a.33.33,0,0,1,.4,0c1.06.05,2.29.09,3.45.09s2.39,0,3.46-.08a.32.32,0,0,1,.39,0c.15.16.37,0,.17,1.22A13.35,13.35,0,0,0,54,23.06a4,4,0,0,0,1.36.57,3.3,3.3,0,0,0,1.26.25A13.35,13.35,0,0,0,57.82,22l.31-.59.08-.15c0-.06.07-.18.1-.27a3.71,3.71,0,0,0,.17-.6,4.94,4.94,0,0,0-.18-2.68,5.24,5.24,0,0,0-1.74-2.38,5.35,5.35,0,0,0-3-1.07c-1.21-.06-2.34-.09-3.53-.09s-2.31,0-3.53.09a5.34,5.34,0,0,0-3,1.08,5.21,5.21,0,0,0-1.73,2.38,4.92,4.92,0,0,0-.17,2.67A3.73,3.73,0,0,0,41.78,21Z"/><text x="0" y="115" fill="#000000" font-size="5px" font-weight="bold" font-family="'Helvetica Neue', Helvetica, Arial-Unicode, Arial, Sans-serif">Created by Gregor Cresnar</text><text x="0" y="120" fill="#000000" font-size="5px" font-weight="bold" font-family="'Helvetica Neue', Helvetica, Arial-Unicode, Arial, Sans-serif">from the Noun Project</text></svg>