<svg xmlns="http://www.w3.org/2000/svg" xmlns:svg="http://www.w3.org/2000/svg" viewBox="0 0 24 30" version="1.1" x="0px" y="0px"><g><path style="color:#000000;" d="m 9.9101563,13.007813 -2.5488282,0.46289 C 5.4175737,13.824113 4,15.524379 4,17.5 v 3 C 4,21.322504 4.677496,22 5.5,22 h 13 c 0.822504,0 1.5,-0.677496 1.5,-1.5 v -3 c 0,-1.975621 -1.417574,-3.675887 -3.361328,-4.029297 l -2.548828,-0.46289 A 0.50005,0.50005 0 0 0 13.609375,13.1875 L 12,15.199219 10.390625,13.1875 A 0.50005,0.50005 0 0 0 9.9101563,13.007813 Z m -0.1132813,1.037109 1.8125,2.267578 a 0.50005,0.50005 0 0 0 0.78125,0 l 1.8125,-2.267578 2.255859,0.410156 C 17.933661,14.723201 19,16.001147 19,17.5 v 3 C 19,20.782064 18.782064,21 18.5,21 H 5.5 C 5.2179356,21 5,20.782064 5,20.5 v -3 c 0,-1.498853 1.0663395,-2.776799 2.5410156,-3.044922 z" fill="#000000" stroke-linecap="round" stroke-linejoin="round"/><path style="color:#000000;" d="M 12,2 C 9.2445013,2 7,4.2445013 7,7 c 0,2.7554987 2.2445013,5 5,5 2.755499,0 5,-2.2445013 5,-5 0,-2.7554987 -2.244501,-5 -5,-5 z m 0,1 c 2.215059,0 4,1.7849409 4,4 0,2.2150591 -1.784941,4 -4,4 C 9.7849409,11 8,9.2150591 8,7 8,4.7849409 9.7849409,3 12,3 Z" fill="#000000" stroke-linecap="round" stroke-linejoin="round"/></g><text x="0" y="39" fill="#000000" font-size="5px" font-weight="bold" font-family="'Helvetica Neue', Helvetica, Arial-Unicode, Arial, Sans-serif">Created by Ian Anandara</text><text x="0" y="44" fill="#000000" font-size="5px" font-weight="bold" font-family="'Helvetica Neue', Helvetica, Arial-Unicode, Arial, Sans-serif">from the Noun Project</text></svg>