<?xml version="1.0" standalone="no"?>
<!DOCTYPE svg PUBLIC "-//W3C//DTD SVG 20010904//EN"
 "http://www.w3.org/TR/2001/REC-SVG-20010904/DTD/svg10.dtd">
<svg version="1.0" xmlns="http://www.w3.org/2000/svg"
 width="225.000000pt" height="225.000000pt" viewBox="0 0 225.000000 225.000000"
 preserveAspectRatio="xMidYMid meet">
<metadata>
Created by potrace 1.10, written by Peter Selinger 2001-2011
</metadata>
<g transform="translate(0.000000,225.000000) scale(0.100000,-0.100000)"
fill="#000000" stroke="none">
<path d="M1030 2148 c-440 -32 -823 -375 -914 -820 -21 -101 -21 -305 0 -406
42 -206 131 -368 284 -522 205 -205 436 -301 725 -301 468 0 850 288 992 748
25 83 27 100 27 278 0 179 -2 195 -27 280 -149 487 -578 780 -1087 743z m219
-38 c227 -29 469 -156 614 -323 67 -78 105 -133 150 -222 72 -143 98 -265 98
-454 -1 -102 -6 -147 -26 -227 -59 -235 -201 -440 -395 -574 -569 -390 -1345
-103 -1526 565 -30 108 -36 305 -15 428 72 413 418 746 836 803 117 16 163 16
264 4z"/>
<path d="M1009 2001 c-140 -20 -286 -81 -405 -169 -194 -144 -318 -352 -354
-597 -30 -202 33 -446 164 -629 176 -246 506 -394 801 -358 111 14 206 42 299
88 102 51 153 89 241 178 115 117 192 257 231 422 17 71 23 251 12 314 -24
121 -35 156 -83 255 -121 248 -332 418 -596 480 -80 18 -236 26 -310 16z m321
-56 c94 -24 255 -106 330 -167 92 -76 163 -168 219 -283 60 -123 80 -199 87
-335 8 -146 -17 -267 -85 -404 -89 -180 -207 -298 -387 -387 -350 -173 -770
-83 -1020 219 -117 141 -194 354 -194 537 0 242 124 505 308 651 113 90 249
154 379 179 96 18 271 13 363 -10z"/>
<path d="M733 1480 c-98 -50 -97 -197 1 -244 121 -57 241 57 188 178 -35 78
-112 105 -189 66z m128 -46 c27 -24 42 -76 30 -106 -14 -37 -58 -68 -98 -68
-69 0 -117 87 -83 150 26 48 110 61 151 24z"/>
<path d="M1394 1486 c-70 -31 -102 -137 -60 -200 56 -86 184 -86 237 1 28 46
23 122 -12 160 -46 49 -107 64 -165 39z m106 -41 c35 -18 50 -43 50 -85 0 -42
-15 -67 -50 -85 -43 -22 -76 -18 -112 14 -27 24 -33 36 -33 71 0 35 6 47 33
71 36 32 69 36 112 14z"/>
</g>
</svg>
